<?xml version="1.0" standalone="no"?>
<!DOCTYPE svg PUBLIC "-//W3C//DTD SVG 20010904//EN"
 "http://www.w3.org/TR/2001/REC-SVG-20010904/DTD/svg10.dtd">
<svg version="1.0" xmlns="http://www.w3.org/2000/svg"
 width="700.000000pt" height="700.000000pt" viewBox="0 0 700.000000 700.000000"
 preserveAspectRatio="xMidYMid meet">
<metadata>
Created by potrace 1.11, written by Peter Selinger 2001-2013
</metadata>
<g transform="translate(0.000000,700.000000) scale(0.100000,-0.100000)"
fill="#000000" stroke="none">
<path d="M810 6985 c-185 -31 -358 -118 -497 -249 -142 -133 -230 -280 -281
-463 l-27 -98 0 -2665 c0 -2567 1 -2668 19 -2745 24 -104 65 -205 118 -296 52
-87 179 -224 264 -285 86 -61 233 -129 340 -156 l89 -23 2665 0 2665 0 89 23
c107 27 254 95 340 156 70 50 188 169 233 236 43 63 98 174 122 247 54 160 51
23 49 2873 l-3 2635 -27 98 c-51 183 -139 330 -281 463 -142 134 -313 219
-506 250 -121 20 -5254 19 -5371 -1z m3195 -2025 l580 -1059 675 -1 c525 0
688 -3 731 -14 140 -32 239 -136 269 -279 31 -152 -55 -317 -200 -386 l-55
-26 -709 -5 -708 -5 -583 -1060 -582 -1060 -386 -3 -386 -2 15 42 c49 137 718
2056 722 2071 4 16 -34 17 -705 17 l-709 0 -156 -352 -157 -353 -180 -3 -181
-2 0 1060 0 1060 181 -2 181 -3 154 -345 153 -345 710 -3 c391 -1 711 0 711 2
0 2 -163 471 -361 1042 -199 572 -364 1047 -367 1057 -4 16 19 17 379 17 l384
0 580 -1060z"/>
</g>
</svg>
